<svg width="361" height="359" viewBox="0 0 361 359" fill="none" xmlns="http://www.w3.org/2000/svg">
<path fill-rule="evenodd" clip-rule="evenodd" d="M189.599 279.238C152.765 257.617 114.3 231.756 80.386 201.523L80.3881 201.531L80.3815 201.524C84.5634 216.203 89.9167 230.451 96.3425 244.132C117.441 289.067 142.699 318.761 174.658 343.578C181.326 348.757 188.287 353.723 195.562 358.571L195.563 358.566L195.567 358.569C196.06 356.21 196.596 353.839 197.172 351.466L197.253 351.131L197.346 350.754L197.979 348.216C199.95 340.454 202.163 333.003 204.629 325.84C204.12 325.716 203.61 325.592 203.094 325.44C188.495 321.121 179.534 305.78 183.08 291.173C184.219 286.477 186.52 282.427 189.599 279.238ZM198.952 81.6236L198.937 81.6063C213.404 85.8725 227.45 91.3317 240.929 97.8755C299.011 126.046 331.215 161.427 360.592 209.861L360.582 209.86L360.59 209.873C357.337 209.544 354.107 209.34 350.906 209.236L350.9 209.23C342.61 208.972 334.451 209.453 326.426 210.679C327.613 197.378 319.012 184.357 305.752 180.435C293.487 176.807 281.163 182.11 275.416 192.547L275.413 192.559C266.789 177.384 257.478 161.936 247.468 146.634L247.466 146.643C232.795 124.223 216.616 102.108 198.935 81.6185L198.952 81.6236ZM229.296 275.444C104.874 207.733 31.1547 135.944 8.14289 60.0594L8.13977 60.06C2.17069 40.3726 -0.384561 20.4035 0.471012 0.165119C34.7163 -1.24876 68.1495 7.52057 100.774 26.4608L100.777 26.4564C129.978 43.4359 158.544 68.5689 186.429 101.881L186.411 101.868C196.147 113.493 205.805 126.113 215.381 139.73C215.383 139.73 215.385 139.73 215.387 139.73C234.374 166.721 253.032 197.621 271.387 232.423L271.385 232.426L271.387 232.43C259.723 240.378 248.991 250.302 239.172 262.211C235.714 266.419 232.419 270.821 229.299 275.432L229.296 275.444Z" fill="white"/>
</svg>
