<svg width="22" height="22" viewBox="0 0 22 22" fill="none" xmlns="http://www.w3.org/2000/svg">
<path d="M20.1406 16.5312C19.3963 15.7812 17.5935 14.6867 16.7188 14.2456C15.5797 13.6718 15.486 13.6249 14.5907 14.2901C13.9935 14.734 13.5964 15.1306 12.8975 14.9815C12.1986 14.8324 10.6799 13.992 9.35002 12.6663C8.02018 11.3407 7.13096 9.77791 6.98143 9.08135C6.8319 8.38478 7.23502 7.99244 7.67471 7.39385C8.2944 6.5501 8.24752 6.40947 7.71784 5.27041C7.30487 4.38447 6.17846 2.59853 5.42565 1.85791C4.62034 1.06244 4.62034 1.20306 4.10143 1.41869C3.67898 1.59643 3.27369 1.81249 2.89065 2.06416C2.14065 2.56244 1.7244 2.97635 1.43331 3.59838C1.14221 4.22041 1.01143 5.67869 2.51471 8.40963C4.01799 11.1406 5.07268 12.537 7.25565 14.7138C9.43862 16.8907 11.1172 18.0612 13.5711 19.4374C16.6067 21.1376 17.7711 20.8062 18.395 20.5156C19.0189 20.2249 19.4347 19.8124 19.9339 19.0624C20.1862 18.68 20.4028 18.2752 20.5808 17.8531C20.7969 17.336 20.9375 17.336 20.1406 16.5312Z" stroke="#6C757D" stroke-width="1.5" stroke-miterlimit="10"/>
</svg>
