<svg width="18" height="19" viewBox="0 0 18 19" fill="none" xmlns="http://www.w3.org/2000/svg">
<path d="M14.9999 1H2.99993C1.89493 1 0.973931 1.91 1.24693 2.98C1.53756 4.11389 2.07294 5.1704 2.81545 6.07531C3.55796 6.98021 4.48961 7.71157 5.54493 8.218C6.36793 8.612 6.99993 9.386 6.99993 10.298V16.382C7.00002 16.5524 7.04365 16.7199 7.12668 16.8687C7.2097 17.0175 7.32937 17.1426 7.47433 17.2322C7.61928 17.3218 7.78472 17.3728 7.95494 17.3805C8.12516 17.3881 8.29451 17.3522 8.44693 17.276L10.4469 16.276C10.613 16.193 10.7527 16.0654 10.8504 15.9075C10.948 15.7496 10.9998 15.5677 10.9999 15.382V10.298C10.9999 9.386 11.6319 8.612 12.4539 8.218C13.5097 7.71186 14.4417 6.98062 15.1846 6.0757C15.9275 5.17077 16.4631 4.11411 16.7539 2.98C17.0249 1.91 16.1029 1 14.9999 1Z" stroke="#6C757D" stroke-width="2"/>
</svg>
