<svg width="34" height="34" viewBox="0 0 34 34" fill="none" xmlns="http://www.w3.org/2000/svg">
<mask id="mask0_663_1166" style="mask-type:luminance" maskUnits="userSpaceOnUse" x="0" y="0" width="34" height="34">
<path d="M33.7396 0.191895H0.0241699V33.7254H33.7396V0.191895Z" fill="white"/>
</mask>
<g mask="url(#mask0_663_1166)">
<path d="M16.8818 33.7253C26.192 33.7253 33.7396 26.2185 33.7396 16.9586C33.7396 7.69862 26.192 0.191895 16.8818 0.191895C7.57159 0.191895 0.0241699 7.69862 0.0241699 16.9586C0.0241699 26.2185 7.57159 33.7253 16.8818 33.7253Z" fill="#22BF66"/>
<path fill-rule="evenodd" clip-rule="evenodd" d="M14.3403 21.9712C16.423 21.4434 18.6373 20.7309 20.6789 19.737C20.2956 20.3983 19.8596 21.0214 19.3772 21.601C17.4627 23.9019 15.5149 25.0197 13.092 25.7873C13.0959 25.6641 13.0979 25.5396 13.0979 25.4145C13.0979 24.9432 13.0776 24.4874 13.0366 24.0452C13.0633 24.0465 13.09 24.0478 13.1174 24.0478C13.8918 24.0478 14.5195 23.4235 14.5195 22.6532C14.5195 22.4056 14.4544 22.1728 14.3403 21.9712ZM11.1344 16.4577C12.6363 14.9263 14.3651 13.3742 16.2522 12.1119C15.4849 12.1112 14.7242 12.1754 13.9785 12.3012C10.7655 12.8419 8.74668 14.114 6.71094 16.0693C7.30088 16.1821 7.86148 16.3611 8.39209 16.6068C8.49313 15.9351 9.07524 15.4197 9.77859 15.4197C10.4291 15.4197 10.9754 15.8599 11.1344 16.457V16.4577ZM12.4212 21.2068C21.2011 19.2916 26.0784 15.8878 27.0527 10.9935C22.3066 9.3869 16.908 11.8817 10.8548 18.4779C11.3365 19.0387 11.7485 19.6832 12.0914 20.4119C12.212 20.6693 12.3221 20.9338 12.4212 21.2061V21.2068Z" fill="white"/>
<path fill-rule="evenodd" clip-rule="evenodd" d="M16.9167 21.2319C15.9794 22.8618 14.6626 24.222 13.0968 25.2107L13.0981 25.4143C13.0981 25.5394 13.0962 25.6639 13.0923 25.7871C15.5153 25.0188 17.463 23.9017 19.3775 21.6008C19.8599 21.0212 20.296 20.3981 20.6793 19.7368C19.4648 20.3281 18.1898 20.8195 16.9167 21.2319Z" fill="white"/>
<path fill-rule="evenodd" clip-rule="evenodd" d="M13.0692 14.6047C14.0645 13.7152 15.131 12.8626 16.2522 12.1118C15.4849 12.1112 14.7242 12.1753 13.9785 12.3011C10.7655 12.8418 8.74668 14.1139 6.71094 16.0693C6.87587 16.1004 7.03819 16.1374 7.19789 16.1788C8.96378 15.148 10.9891 14.5956 13.0692 14.604V14.6047Z" fill="white"/>
<path fill-rule="evenodd" clip-rule="evenodd" d="M21.7727 10.8273C21.9663 11.4121 22.1019 12.0119 22.1808 12.6181C23.4995 12.7931 24.7779 13.2029 25.9536 13.8285C26.4855 12.9468 26.8519 12.0015 27.0527 10.9933C25.3748 10.4254 23.6149 10.3703 21.7727 10.8273Z" fill="white"/>
<path fill-rule="evenodd" clip-rule="evenodd" d="M22.1809 12.6183C22.1026 12.0122 21.967 11.4124 21.7728 10.8276C20.1236 11.238 18.4079 12.0588 16.6277 13.292C17.3199 13.0197 18.0442 12.8161 18.7912 12.6864C19.9241 12.4893 21.0668 12.4705 22.1809 12.6183Z" fill="white"/>
<path fill-rule="evenodd" clip-rule="evenodd" d="M25.9536 13.8281C24.7776 13.2025 23.4996 12.7934 22.1807 12.6177C22.4193 14.4622 22.1234 16.3638 21.2844 18.0812C23.4109 16.8805 24.9675 15.4626 25.9536 13.8275V13.8281Z" fill="white"/>
<path fill-rule="evenodd" clip-rule="evenodd" d="M21.2838 18.0819C19.5199 16.2724 17.2162 15.1041 14.7398 14.7319C13.4758 15.7836 12.1813 17.0323 10.8547 18.4774C11.3365 19.0382 11.7491 19.6827 12.0913 20.4114C12.2119 20.6688 12.322 20.9333 12.4211 21.2056C16.037 20.4166 18.9919 19.3753 21.2831 18.0813L21.2838 18.0819Z" fill="white"/>
</g>
</svg>
