<svg width="158" height="36" viewBox="0 0 158 36" fill="none" xmlns="http://www.w3.org/2000/svg">
<path d="M8.62266 28.44C7.00791 28.44 5.54542 28.0283 4.2352 27.2052C2.93418 26.3729 1.90076 25.1519 1.13485 23.5422C0.378251 21.9233 0 19.9386 0 17.588C0 15.1735 0.392157 13.1659 1.17647 11.5653C1.96069 9.9556 3.00341 8.75286 4.30443 7.95718C5.61465 7.15228 7.04943 6.74988 8.60885 6.74988C9.79913 6.74988 10.791 6.95108 11.5845 7.35348C12.3874 7.74686 13.0332 8.24069 13.5223 8.83517C14.0205 9.42052 14.3989 9.99675 14.6572 10.5639H14.8372V0H20.7194V28.097H14.9064V24.7221H14.6572C14.3804 25.3074 13.9882 25.8882 13.4808 26.4643C12.9825 27.0315 12.3319 27.5025 11.5292 27.8775C10.7357 28.2524 9.76682 28.44 8.62266 28.44ZM10.4912 23.7891C11.4416 23.7891 12.2443 23.533 12.8995 23.0208C13.5638 22.4995 14.0713 21.7724 14.4219 20.8396C14.7818 19.9066 14.9617 18.8137 14.9617 17.5607C14.9617 16.3076 14.7864 15.2192 14.4358 14.2954C14.0852 13.3716 13.5776 12.6583 12.9133 12.1552C12.2489 11.6522 11.4416 11.4007 10.4912 11.4007C9.52232 11.4007 8.70569 11.6614 8.04143 12.1827C7.37706 12.704 6.87416 13.4266 6.53272 14.3503C6.19138 15.2741 6.02062 16.3441 6.02062 17.5607C6.02062 18.7862 6.19138 19.8701 6.53272 20.8121C6.88336 21.745 7.38626 22.4766 8.04143 23.0072C8.70569 23.5284 9.52232 23.7891 10.4912 23.7891Z" fill="#22BF66"/>
<path d="M32.5836 28.5085C30.3969 28.5085 28.5145 28.0694 26.9367 27.1914C25.368 26.3042 24.1594 25.0512 23.3104 23.4323C22.4616 21.8043 22.0371 19.879 22.0371 17.6565C22.0371 15.4889 22.4616 13.5865 23.3104 11.9493C24.1594 10.3122 25.3542 9.03634 26.8952 8.12167C28.4453 7.20709 30.2631 6.74976 32.3483 6.74976C33.7509 6.74976 35.0565 6.97386 36.2653 7.42198C37.4833 7.86097 38.5444 8.52407 39.4487 9.41127C40.3622 10.2985 41.0726 11.4143 41.5802 12.7588C42.0876 14.0941 42.3414 15.6581 42.3414 17.4508V19.0559H24.3901V15.434H36.7912C36.7912 14.5926 36.6067 13.8472 36.2376 13.1978C35.8686 12.5484 35.3565 12.0408 34.7013 11.675C34.0554 11.2999 33.3034 11.1125 32.4453 11.1125C31.5502 11.1125 30.7567 11.3183 30.0647 11.7298C29.3819 12.1323 28.8467 12.6765 28.4592 13.3624C28.0716 14.0393 27.8733 14.7938 27.864 15.6261V19.0696C27.864 20.1123 28.0578 21.0132 28.4453 21.7723C28.8421 22.5314 29.4004 23.1168 30.1201 23.5283C30.8397 23.9399 31.6933 24.1457 32.6806 24.1457C33.3356 24.1457 33.9355 24.0543 34.4799 23.8713C35.0242 23.6884 35.4902 23.414 35.8778 23.0482C36.2653 22.6824 36.5605 22.2342 36.7635 21.7037L42.2168 22.0604C41.94 23.3591 41.3725 24.4933 40.5144 25.4628C39.6655 26.4231 38.5674 27.1731 37.2203 27.7127C35.8824 28.2432 34.3368 28.5085 32.5836 28.5085Z" fill="#22BF66"/>
<path d="M61.6626 7.02417L54.2302 28.0969H47.5867L40.1543 7.02417H46.3826L50.7978 22.1016H51.0192L55.4205 7.02417H61.6626Z" fill="#22BF66"/>
<path fill-rule="evenodd" clip-rule="evenodd" d="M143.715 14.4841C146.055 13.8933 148.544 13.0948 150.838 11.982C150.407 12.7228 149.917 13.4201 149.374 14.0694C147.223 16.6463 145.035 17.8976 142.312 18.7576C142.316 18.6193 142.318 18.4801 142.318 18.3399C142.318 17.8123 142.295 17.3015 142.25 16.8066C142.28 16.8083 142.31 16.8093 142.34 16.8093C143.211 16.8093 143.916 16.1103 143.916 15.2479C143.916 14.9703 143.843 14.71 143.715 14.4841ZM140.113 8.30981C141.8 6.5949 143.743 4.85688 145.864 3.44312C145.002 3.44253 144.147 3.51462 143.309 3.65533C139.698 4.26111 137.429 5.68528 135.143 7.87528C135.806 8.00132 136.435 8.20202 137.031 8.47749C137.145 7.72525 137.8 7.14822 138.59 7.14822C139.32 7.14822 139.935 7.64116 140.113 8.30981ZM141.559 13.6277C151.424 11.483 156.904 7.67111 158 2.1906C152.667 0.391301 146.6 3.1854 139.798 10.5722C140.341 11.2 140.804 11.9217 141.188 12.738C141.324 13.0259 141.448 13.3223 141.559 13.6277Z" fill="#22BF66"/>
<path fill-rule="evenodd" clip-rule="evenodd" d="M146.61 13.6565C145.557 15.4816 144.077 17.0045 142.318 18.1122L142.318 18.3398C142.318 18.4801 142.317 18.6194 142.312 18.7575C145.035 17.8976 147.223 16.6462 149.374 14.0693C149.917 13.4201 150.406 12.7228 150.837 11.9819C149.472 12.6439 148.04 13.1945 146.61 13.6565Z" fill="#22BF66"/>
<path fill-rule="evenodd" clip-rule="evenodd" d="M142.286 6.23478C143.406 5.2385 144.603 4.28386 145.864 3.44336C145.002 3.44277 144.147 3.51486 143.309 3.65557C139.698 4.26135 137.429 5.68552 135.143 7.87552C135.328 7.91063 135.51 7.95168 135.69 7.99849C137.674 6.84414 139.95 6.22546 142.287 6.23478H142.286Z" fill="#22BF66"/>
<path fill-rule="evenodd" clip-rule="evenodd" d="M152.066 2.005C152.284 2.66017 152.437 3.3315 152.525 4.01027C154.007 4.20661 155.444 4.66493 156.764 5.36542C157.363 4.37776 157.774 3.3198 158 2.19083C156.114 1.55451 154.136 1.49283 152.066 2.005Z" fill="#22BF66"/>
<path fill-rule="evenodd" clip-rule="evenodd" d="M152.525 4.01002C152.437 3.33126 152.285 2.65993 152.066 2.00476C150.214 2.46428 148.286 3.38361 146.285 4.76465C147.063 4.46012 147.877 4.23165 148.716 4.08638C149.99 3.86544 151.273 3.84432 152.525 4.01002Z" fill="#22BF66"/>
<path fill-rule="evenodd" clip-rule="evenodd" d="M156.764 5.36526C155.443 4.66478 154.007 4.20635 152.525 4.01001C152.793 6.07536 152.46 8.20477 151.518 10.1287C153.907 8.78438 155.655 7.19659 156.764 5.36526Z" fill="#22BF66"/>
<path fill-rule="evenodd" clip-rule="evenodd" d="M151.518 10.1289C149.536 8.10286 146.947 6.79401 144.164 6.37793C142.744 7.55538 141.289 8.95357 139.799 10.5719C140.34 11.1996 140.803 11.9216 141.188 12.7379C141.324 13.0258 141.448 13.3222 141.56 13.6276C145.622 12.7441 148.943 11.5782 151.518 10.1289Z" fill="#22BF66"/>
<path d="M61.2227 28.0969V24.6122L71.6308 11.8396V11.6887H61.5825V7.02417H78.7311V10.8244L68.9596 23.2814V23.4324H79.0909V28.0969H61.2227Z" fill="#262931"/>
<path d="M119.83 35.9999V7.02536H125.643V10.5649H125.907C126.165 9.99785 126.538 9.42162 127.027 8.83626C127.525 8.24178 128.171 7.74795 128.965 7.35468C129.768 6.95228 130.764 6.75098 131.954 6.75098C133.505 6.75098 134.935 7.15348 136.245 7.95828C137.555 8.75396 138.603 9.9567 139.387 11.5664C140.171 13.167 140.563 15.1745 140.563 17.589C140.563 19.9396 140.18 21.9242 139.414 23.543C138.658 25.1527 137.624 26.3737 136.314 27.206C135.013 28.0291 133.556 28.4408 131.941 28.4408C130.796 28.4408 129.823 28.2532 129.02 27.8782C128.226 27.5033 127.576 27.0323 127.069 26.4651C126.561 25.889 126.174 25.3082 125.907 24.7229H125.726V35.9999H119.83ZM125.601 17.5616C125.601 18.8146 125.776 19.9075 126.128 20.8405C126.478 21.7733 126.986 22.5004 127.65 23.0217C128.314 23.5339 129.122 23.7899 130.072 23.7899C131.032 23.7899 131.844 23.5293 132.508 23.008C133.172 22.4775 133.676 21.7459 134.017 20.813C134.367 19.8709 134.543 18.7871 134.543 17.5616C134.543 16.3451 134.372 15.2751 134.031 14.3514C133.689 13.4276 133.186 12.7051 132.522 12.1838C131.858 11.6624 131.041 11.4018 130.072 11.4018C129.113 11.4018 128.3 11.6533 127.636 12.1563C126.981 12.6594 126.478 13.3727 126.128 14.2964C125.776 15.2202 125.601 16.3085 125.601 17.5616Z" fill="#262931"/>
<path d="M86.8165 28.4947C85.4602 28.4947 84.2514 28.2614 83.1903 27.795C82.1292 27.3194 81.2895 26.6197 80.6713 25.696C80.0623 24.7631 79.7578 23.6015 79.7578 22.2113C79.7578 21.0406 79.9747 20.0574 80.4084 19.2617C80.842 18.466 81.4326 17.8257 82.18 17.341C82.9273 16.8563 83.7762 16.4904 84.7266 16.2435C85.6862 15.9965 86.692 15.8227 87.7439 15.7222C88.9801 15.594 89.9765 15.4751 90.7338 15.3654C91.4901 15.2465 92.0393 15.0727 92.3805 14.8441C92.7216 14.6154 92.8927 14.2771 92.8927 13.8289V13.7466C92.8927 12.8777 92.6156 12.2055 92.0623 11.7298C91.5181 11.2542 90.7428 11.0164 89.7374 11.0164C88.676 11.0164 87.8316 11.2496 87.2041 11.7161C86.5767 12.1734 86.1615 12.7497 85.9584 13.4447L80.5052 13.0057C80.782 11.7252 81.3264 10.6186 82.1384 9.68565C82.9504 8.74361 83.9977 8.02112 85.2802 7.51807C86.5721 7.00589 88.0668 6.74976 89.7644 6.74976C90.9459 6.74976 92.0764 6.887 93.1558 7.16138C94.2442 7.43576 95.2086 7.86097 96.048 8.4372C96.8973 9.01343 97.5666 9.75428 98.0548 10.6597C98.544 11.5561 98.7891 12.6307 98.7891 13.8838V28.0968H93.1968V25.1746H93.0307C92.6896 25.8332 92.2324 26.4139 91.6612 26.917C91.089 27.4109 90.4017 27.7996 89.5984 28.0831C88.796 28.3575 87.8685 28.4947 86.8165 28.4947ZM88.5049 24.4612C89.3723 24.4612 90.1386 24.2921 90.8028 23.9536C91.4671 23.6061 91.9883 23.1396 92.3665 22.5542C92.7446 21.9689 92.9337 21.3058 92.9337 20.565V18.3287C92.7496 18.4476 92.4955 18.5574 92.1724 18.6581C91.8593 18.7495 91.5041 18.8364 91.107 18.9187C90.7108 18.9918 90.3137 19.0605 89.9165 19.1245C89.5203 19.1794 89.1602 19.2296 88.8371 19.2753C88.1453 19.376 87.5408 19.536 87.0241 19.7556C86.5074 19.975 86.1061 20.2723 85.82 20.6474C85.534 21.0132 85.391 21.4705 85.391 22.0193C85.391 22.8149 85.6816 23.4232 86.2629 23.8439C86.8535 24.2555 87.6009 24.4612 88.5049 24.4612Z" fill="#262931"/>
<path d="M99.4355 35.9991V7.02414H105.249V10.5637H105.512C105.77 9.99663 106.144 9.4204 106.633 8.83504C107.132 8.24056 107.777 7.74673 108.571 7.35336C109.374 6.95096 110.37 6.74976 111.56 6.74976C113.11 6.74976 114.541 7.15216 115.851 7.95706C117.162 8.75274 118.208 9.95548 118.992 11.5652C119.777 13.1658 120.169 15.1734 120.169 17.5879C120.169 19.9384 119.787 21.9232 119.02 23.5421C118.264 25.1518 117.231 26.3728 115.92 27.2051C114.619 28.0282 113.161 28.4398 111.546 28.4398C110.402 28.4398 109.429 28.2523 108.626 27.8774C107.833 27.5024 107.182 27.0313 106.674 26.4642C106.167 25.8881 105.779 25.3073 105.512 24.7219H105.332V35.9991H99.4355ZM105.208 17.5605C105.208 18.8135 105.383 19.9065 105.733 20.8394C106.084 21.7723 106.591 22.4994 107.256 23.0207C107.92 23.5329 108.727 23.789 109.678 23.789C110.638 23.789 111.449 23.5283 112.114 23.007C112.778 22.4765 113.281 21.7449 113.622 20.812C113.973 19.8699 114.148 18.7861 114.148 17.5605C114.148 16.344 113.977 15.2739 113.636 14.3502C113.295 13.4265 112.792 12.7039 112.128 12.1826C111.463 11.6613 110.647 11.4006 109.678 11.4006C108.718 11.4006 107.906 11.652 107.242 12.1551C106.587 12.6581 106.084 13.3715 105.733 14.2953C105.383 15.2191 105.208 16.3075 105.208 17.5605Z" fill="#262931"/>
</svg>
