<svg width="26" height="24" viewBox="0 0 26 24" fill="none" xmlns="http://www.w3.org/2000/svg">
<path d="M25.0041 11.2712C25.0041 17.1193 19.4868 21.8602 12.682 21.8602C11.4615 21.8618 10.2462 21.7062 9.06697 21.3973C8.16745 21.8451 6.10196 22.7043 2.62713 23.264C2.31908 23.3124 2.08496 22.9977 2.20664 22.7164C2.75189 21.4518 3.24477 19.7666 3.39264 18.2297C1.50582 16.369 0.359863 13.9336 0.359863 11.2712C0.359863 5.42306 5.87708 0.68222 12.682 0.68222C19.4868 0.68222 25.0041 5.42306 25.0041 11.2712ZM8.06117 11.2712C8.06117 10.87 7.8989 10.4852 7.61004 10.2016C7.32119 9.91787 6.92941 9.75849 6.52091 9.75849C6.11241 9.75849 5.72064 9.91787 5.43178 10.2016C5.14293 10.4852 4.98065 10.87 4.98065 11.2712C4.98065 11.6724 5.14293 12.0572 5.43178 12.3409C5.72064 12.6245 6.11241 12.7839 6.52091 12.7839C6.92941 12.7839 7.32119 12.6245 7.61004 12.3409C7.8989 12.0572 8.06117 11.6724 8.06117 11.2712ZM14.2222 11.2712C14.2222 10.87 14.0599 10.4852 13.7711 10.2016C13.4822 9.91787 13.0905 9.75849 12.682 9.75849C12.2735 9.75849 11.8817 9.91787 11.5928 10.2016C11.304 10.4852 11.1417 10.87 11.1417 11.2712C11.1417 11.6724 11.304 12.0572 11.5928 12.3409C11.8817 12.6245 12.2735 12.7839 12.682 12.7839C13.0905 12.7839 13.4822 12.6245 13.7711 12.3409C14.0599 12.0572 14.2222 11.6724 14.2222 11.2712ZM18.843 12.7839C19.2515 12.7839 19.6433 12.6245 19.9321 12.3409C20.221 12.0572 20.3833 11.6724 20.3833 11.2712C20.3833 10.87 20.221 10.4852 19.9321 10.2016C19.6433 9.91787 19.2515 9.75849 18.843 9.75849C18.4345 9.75849 18.0427 9.91787 17.7539 10.2016C17.465 10.4852 17.3027 10.87 17.3027 11.2712C17.3027 11.6724 17.465 12.0572 17.7539 12.3409C18.0427 12.6245 18.4345 12.7839 18.843 12.7839Z" fill="#EAB308"/>
</svg>
