<svg width="100%" height="100%" viewBox="0 0 19 16" fill="none" xmlns="http://www.w3.org/2000/svg">
<path d="M10.1899 1.06036C9.98524 0.981238 9.75143 0.975486 9.53991 1.04437C9.32839 1.11326 9.15649 1.25114 9.06202 1.42769C8.96755 1.60424 8.95825 1.80499 9.03617 1.98578C9.1141 2.16656 9.27285 2.31258 9.47751 2.39171L10.1744 2.78645L8.30361 5.1965L6.90989 4.40701C6.14335 3.97279 5.09525 4.15978 4.58079 4.82254L8.76194 7.19102L5.9558 10.8061L5.63365 12.3585L7.34952 11.5956L10.1557 7.98051L14.3368 10.349C14.8513 9.68622 14.645 8.78869 13.8785 8.35447L12.4848 7.56498L14.3555 5.15493L15.0524 5.54967C15.2372 5.65437 15.4637 5.69129 15.6821 5.65233C15.9005 5.61337 16.0929 5.5017 16.2169 5.34191C16.341 5.18211 16.3865 4.98727 16.3435 4.80025C16.3006 4.61323 16.1726 4.44934 15.9878 4.34465L10.4129 1.18668C10.3737 1.15979 10.3317 1.136 10.2875 1.11563C10.2607 1.09841 10.2328 1.08259 10.2038 1.06826L10.1899 1.06036Z" fill="currentColor"/>
</svg>
