<svg width="100%" height="100%" viewBox="0 0 19 20" fill="none" xmlns="http://www.w3.org/2000/svg">
<path d="M15.834 16.075L13.3045 13.25C14.1206 12.0854 14.5634 10.6472 14.5618 9.16667C14.5618 7.84813 14.2127 6.5592 13.5587 5.46287C12.9047 4.36654 11.9752 3.51206 10.8876 3.00747C9.8001 2.50289 8.60339 2.37087 7.44886 2.6281C6.29432 2.88534 5.23382 3.52027 4.40144 4.45262C3.56907 5.38497 3.00222 6.57286 2.77257 7.86607C2.54292 9.15927 2.66078 10.4997 3.11126 11.7179C3.56174 12.9361 4.32459 13.9773 5.30336 14.7098C6.28212 15.4423 7.43284 15.8333 8.60999 15.8333C9.93178 15.8352 11.2157 15.3392 12.2555 14.425L14.7775 17.2583C14.8467 17.3364 14.929 17.3984 15.0196 17.4407C15.1103 17.4831 15.2075 17.5048 15.3058 17.5048C15.404 17.5048 15.5012 17.4831 15.5919 17.4407C15.6825 17.3984 15.7648 17.3364 15.834 17.2583C15.9037 17.1809 15.9591 17.0887 15.9968 16.9871C16.0346 16.8856 16.054 16.7767 16.054 16.6667C16.054 16.5567 16.0346 16.4477 15.9968 16.3462C15.9591 16.2446 15.9037 16.1525 15.834 16.075ZM4.14615 9.16667C4.14615 8.17776 4.40795 7.21106 4.89845 6.38882C5.38894 5.56657 6.08609 4.92571 6.90175 4.54727C7.71741 4.16883 8.61494 4.06982 9.48084 4.26274C10.3467 4.45567 11.1421 4.93187 11.7664 5.63114C12.3907 6.3304 12.8158 7.22131 12.9881 8.19122C13.1603 9.16112 13.0719 10.1665 12.734 11.0801C12.3962 11.9937 11.824 12.7746 11.09 13.324C10.3559 13.8734 9.49286 14.1667 8.60999 14.1667C7.42611 14.1667 6.29071 13.6399 5.45358 12.7022C4.61645 11.7645 4.14615 10.4928 4.14615 9.16667Z" fill="currentColor"/>
</svg>
