<svg width="100%" height="100%" viewBox="0 0 12 11" fill="none" xmlns="http://www.w3.org/2000/svg">
<g clip-path="url(#clip0_145_2290)">
<path d="M9.11163 0.131525C8.99798 0.171895 8.95295 0.209845 8.91265 0.302355C8.87477 0.397285 8.87235 0.508825 8.91035 0.577575C8.92451 0.606065 9.09988 0.788775 9.29645 0.985675C9.87208 1.55514 10.2132 2.02737 10.5519 2.71784C10.8528 3.32999 11.0422 3.9351 11.1465 4.61611C11.2081 5.01475 11.2081 5.99232 11.1489 6.38392C10.9712 7.53474 10.5212 8.57633 9.8152 9.46854C9.72757 9.58008 9.49301 9.83154 9.29645 10.0286C9.09747 10.2231 8.92451 10.4082 8.90793 10.4343C8.84402 10.5578 8.90793 10.7689 9.03345 10.8472C9.13052 10.9065 9.29875 10.9065 9.39583 10.8449C9.5119 10.7737 10.0022 10.292 10.2131 10.0381C11.125 8.95143 11.6675 7.6938 11.8309 6.2891C11.8782 5.89992 11.8759 5.10748 11.8309 4.71357C11.6391 3.08095 10.9166 1.61212 9.74404 0.478025C9.37222 0.117335 9.28689 0.0698149 9.11163 0.131525Z" fill="currentColor"/>
<path d="M8.15937 1.152C8.06461 1.20183 8.01014 1.26827 7.9817 1.37508C7.93909 1.53172 7.97939 1.59574 8.30619 1.92079C9.17558 2.77978 9.68478 3.83325 9.80557 5.02917C9.90748 6.05657 9.66578 7.15052 9.13758 8.03789C8.91258 8.41519 8.65199 8.74739 8.31322 9.0819C7.99575 9.39749 7.9437 9.48054 7.97445 9.60869C8.00048 9.72738 8.07625 9.81989 8.17574 9.86015C8.33914 9.92417 8.42446 9.89579 8.66133 9.68459C9.37192 9.05341 9.94987 8.13513 10.2532 7.15514C10.5729 6.11817 10.5729 4.89387 10.2532 3.8569C9.96656 2.93147 9.49986 2.15795 8.80826 1.4699C8.45554 1.11878 8.33705 1.0618 8.15937 1.152Z" fill="currentColor"/>
<path d="M5.67644 1.47443C5.6267 1.48631 5.55323 1.51238 5.51062 1.53372C5.46802 1.55748 4.88294 2.00595 4.20781 2.53032L2.98318 3.48897H2.30102H1.61634L1.46952 3.56256C1.30612 3.64561 1.18522 3.78564 1.13547 3.94932C1.09286 4.09408 1.09286 6.92955 1.13547 7.06012C1.2018 7.25944 1.33445 7.39947 1.54288 7.48725C1.61634 7.51574 1.7513 7.52289 2.30794 7.52289H2.98307L4.21484 8.48627C4.89227 9.01549 5.49876 9.471 5.56026 9.49707C5.80898 9.61092 6.1169 9.53744 6.31116 9.32151C6.50069 9.108 6.48883 9.38552 6.48883 5.50604C6.48883 1.62645 6.50069 1.90409 6.31116 1.69058C6.15017 1.51007 5.88959 1.42229 5.67644 1.47443ZM5.82095 7.193L5.81382 8.88007L4.63652 7.96179L3.45691 7.04109V5.50593V3.97077L4.63652 3.05007L5.81382 2.12937L5.82095 3.81875C5.82326 4.7466 5.82326 6.26515 5.82095 7.193ZM3.12528 5.50593V6.85849H2.45015H1.77502V5.50593V4.15348H2.45015H3.12528V5.50593Z" fill="currentColor"/>
<path d="M7.3439 2.50896C7.23969 2.56121 7.17578 2.66791 7.17578 2.79606C7.17578 2.93609 7.1995 2.97162 7.42923 3.20185C7.87452 3.64559 8.1541 4.13201 8.30334 4.7204C8.58753 5.84043 8.25129 7.00786 7.41506 7.81933C7.21608 8.01392 7.17578 8.07794 7.17578 8.21082C7.17578 8.33897 7.23739 8.44094 7.34632 8.49792C7.524 8.58812 7.63765 8.54775 7.88879 8.30333C8.54262 7.66511 8.94288 6.85122 9.0471 5.94955C9.0874 5.61493 9.06368 5.04788 8.99977 4.74175C8.83395 3.94919 8.46202 3.26819 7.88879 2.70829C7.64238 2.46628 7.51917 2.4236 7.3439 2.50896Z" fill="currentColor"/>
</g>
<defs>
<clipPath id="clip0_145_2290">
<rect width="10.9813" height="11" fill="white" transform="translate(0.994141)"/>
</clipPath>
</defs>
</svg>
